<?xml version="1.0" encoding="UTF-8" standalone="no"?><!DOCTYPE svg PUBLIC "-//W3C//DTD SVG 1.1//EN" "http://www.w3.org/Graphics/SVG/1.1/DTD/svg11.dtd"><svg width="100%" height="100%" viewBox="0 0 6120 6120" version="1.1" xmlns="http://www.w3.org/2000/svg" xmlns:xlink="http://www.w3.org/1999/xlink" xml:space="preserve" xmlns:serif="http://www.serif.com/" style="fill-rule:evenodd;clip-rule:evenodd;stroke-linecap:round;stroke-linejoin:round;stroke-miterlimit:1.5;"><rect x="0" y="0" width="6119.15" height="6119.15"/><g><path d="M5226.59,5226.59c-0,-643.962 -0,-1323.75 -0,-1430.29" style="fill:none;stroke:#fff;stroke-width:130.21px;"/><path d="M2337.23,3796.31c0,104.755 0,763.771 0,1397.98" style="fill:none;stroke:#fff;stroke-width:130.21px;"/><path d="M963.767,3781.91l1373.47,-0" style="fill:none;stroke:#fff;stroke-width:130.21px;"/><path d="M2337.23,892.555l-1444.68,0" style="fill:none;stroke:#fff;stroke-width:130.21px;"/><path d="M5226.59,3781.91l-0,15.625l-0,-2889.36c-0,-8.629 -6.996,-15.625 -15.625,-15.625l-2873.73,0l0,2889.36l2889.36,-0Z" style="fill:#ebebeb;fill-opacity:0;stroke:#fff;stroke-width:130.21px;stroke-linecap:butt;"/><g><path d="M3011.82,2976.95l152.348,-0l0,-1305.99l-152.348,0l0,-119.531l553.045,-0l-0,119.531l-152.348,0l-0,1305.99l152.348,-0l-0,119.531l-553.045,-0l0,-119.531Z" style="fill:#fff;fill-rule:nonzero;"/><path d="M4151.31,3123.04c-70.957,0 -128.696,-14.757 -173.218,-44.27c-44.522,-29.514 -73.739,-61.98 -87.652,-97.396l-8.348,-0l-0,115.104l-158.609,-0l-0,-343.099l158.609,-0l-0,39.844c-0,61.979 18.087,110.677 54.261,146.093c36.174,35.417 94.609,53.125 175.305,53.125c150.261,0 225.391,-56.076 225.391,-168.229c0,-87.066 -54.261,-144.618 -162.782,-172.656l-112.696,-28.776c-111.305,-28.038 -194.088,-70.833 -248.349,-128.385c-54.261,-57.553 -81.391,-136.502 -81.391,-236.849c-0,-107.726 34.087,-191.103 102.261,-250.131c68.174,-59.027 158.609,-88.541 271.305,-88.541c69.565,-0 125.217,12.543 166.957,37.63c41.739,25.087 68.869,55.338 81.391,90.755l8.348,0l0,-101.823l158.609,0l0,343.099l-158.609,0l0,-64.193c0,-116.579 -74.435,-174.869 -223.305,-174.869c-64,-0 -113.044,12.912 -147.131,38.737c-34.087,25.824 -51.13,64.561 -51.13,116.211c-0,91.493 55.652,151.996 166.957,181.51l106.435,26.562c112.696,26.563 196.87,66.776 252.522,120.638c55.652,53.863 83.479,133.182 83.479,237.956c-0,106.25 -35.827,191.472 -107.479,255.664c-71.652,64.193 -168.696,96.289 -291.131,96.289Z" style="fill:#fff;fill-rule:nonzero;"/></g></g></svg>